<svg xmlns="http://www.w3.org/2000/svg" viewBox="55.37 143.03 313.35 137.73">
<g>
<path d="M 103.50 279.39 C99.10,278.64 87.62,277.81 78.00,277.54 C68.38,277.28 60.13,277.05 59.68,277.03 C59.23,277.01 59.21,275.99 59.62,274.75 C61.01,270.61 60.69,267.63 58.48,264.37 C55.34,259.75 54.34,247.79 56.59,241.86 C58.41,237.09 58.55,226.60 56.89,219.10 C55.86,214.42 56.25,209.52 58.49,199.00 C60.28,190.59 61.37,169.00 60.00,169.00 C59.45,169.00 59.00,167.40 59.00,165.44 C59.00,161.93 59.16,161.80 67.70,157.79 L 76.40 153.71 L 87.95 154.33 C94.30,154.67 108.28,155.45 119.00,156.07 C129.73,156.68 146.43,156.95 156.13,156.67 C164.09,156.44 169.54,156.45 172.43,156.70 C167.98,157.19 157.08,159.58 156.29,160.43 C155.86,160.90 156.62,161.02 158.00,160.71 C159.38,160.39 163.76,159.82 167.75,159.44 C172.99,158.93 175.39,158.26 175.02,157.37 C175.80,157.88 177.78,158.26 179.69,158.24 C184.13,158.21 216.79,155.08 219.00,154.48 C220.46,154.08 247.67,151.26 257.32,150.50 C259.97,150.30 263.35,149.88 264.82,149.57 C266.29,149.26 273.58,148.32 281.00,147.48 C288.42,146.64 299.45,145.30 305.50,144.51 C322.30,142.30 325.44,142.47 327.97,145.68 C329.30,147.39 329.97,149.48 329.79,151.40 L 329.50 154.44 L 344.02 155.66 C361.38,157.12 363.58,157.79 364.50,161.98 C365.36,165.93 363.15,169.49 358.42,171.74 C354.64,173.54 354.20,176.05 357.51,176.96 C361.10,177.94 363.75,180.25 363.28,182.02 C363.04,182.96 364.00,185.94 365.41,188.65 C368.90,195.31 369.63,203.49 367.60,213.21 C366.68,217.66 365.99,225.90 365.97,232.71 C365.95,239.19 365.31,247.96 364.56,252.19 C363.10,260.37 358.88,269.41 355.52,271.53 C354.41,272.23 347.88,273.53 341.00,274.41 C334.12,275.29 321.75,276.91 313.50,278.00 C295.82,280.35 281.39,280.55 271.00,278.58 C258.99,276.31 242.84,275.75 223.50,276.93 C185.77,279.24 177.87,279.41 176.98,277.97 C175.89,276.20 165.76,276.50 140.06,279.05 C117.80,281.26 114.59,281.29 103.50,279.39 ZM 97.00 196.75 L 97.00 237.00 L 111.00 237.00 L 111.00 219.31 C111.00,204.03 111.19,201.88 112.38,203.50 C113.72,205.34 113.95,205.33 122.08,203.16 C126.66,201.93 130.58,200.76 130.80,200.54 C131.63,199.70 129.78,194.00 128.67,194.00 C128.02,194.00 124.57,194.83 121.00,195.85 C116.08,197.24 112.37,197.58 105.75,197.22 L 97.00 196.75 ZM 77.39 235.42 C76.87,236.79 78.00,237.00 85.89,237.00 L 95.00 237.00 L 95.00 201.00 L 78.00 201.00 L 78.00 217.42 C78.00,226.45 77.73,234.55 77.39,235.42 ZM 246.13 209.75 C247.13,211.61 248.18,212.00 252.20,212.00 C258.26,212.00 261.37,210.04 263.42,204.92 C265.54,199.61 265.41,195.48 262.96,190.42 C260.56,185.46 257.53,183.97 250.50,184.28 L 245.50 184.50 L 245.21 196.00 C245.03,203.57 245.34,208.27 246.13,209.75 ZM 120.27 233.91 C120.75,235.76 121.05,235.74 129.63,233.32 C134.51,231.95 138.63,230.70 138.79,230.54 C139.19,230.14 134.01,209.63 133.16,208.26 C132.68,207.48 130.14,207.76 124.49,209.21 C120.09,210.34 116.14,211.59 115.69,211.99 C115.25,212.39 115.83,216.43 116.99,220.96 C119.01,228.88 119.02,229.26 117.30,230.57 C115.60,231.86 115.62,231.94 117.63,231.97 C118.87,231.99 119.98,232.80 120.27,233.91 ZM 171.56 211.09 C171.87,211.59 172.71,212.00 173.44,212.00 C174.91,212.00 175.97,208.98 175.99,204.75 C176.00,201.50 177.03,201.22 178.77,204.00 C180.41,206.63 181.38,206.52 182.98,203.53 C184.95,199.86 185.98,201.41 185.31,207.03 C184.74,211.88 184.78,212.00 187.36,212.00 L 190.00 212.00 L 190.00 197.93 C190.00,184.04 189.97,183.86 187.82,184.18 C186.17,184.42 185.13,185.91 183.58,190.25 C182.44,193.41 181.22,196.00 180.87,196.00 C180.52,196.00 179.06,193.52 177.63,190.50 C174.95,184.84 173.99,184.09 172.23,186.25 C171.17,187.55 170.58,209.51 171.56,211.09 ZM 221.67 210.31 C221.95,211.33 222.90,211.98 223.84,211.80 C225.14,211.55 225.61,209.97 226.00,204.49 L 226.50 197.51 L 229.83 204.75 C232.30,210.14 233.66,212.00 235.11,212.00 C237.85,212.00 238.09,210.84 238.31,196.88 L 238.50 184.50 L 236.00 184.50 C233.65,184.50 233.49,184.83 233.39,190.00 C233.22,198.71 233.06,198.84 230.37,192.50 C227.24,185.14 225.86,183.59 223.15,184.45 C221.21,185.07 221.08,185.83 221.13,196.81 C221.15,203.24 221.40,209.31 221.67,210.31 ZM 196.59 247.15 C196.92,247.68 197.93,247.97 198.84,247.80 C200.08,247.56 200.58,246.18 200.80,242.32 C201.10,237.18 201.12,237.16 204.93,236.51 C210.31,235.60 213.00,232.80 213.00,228.12 C213.00,222.73 210.57,220.90 202.62,220.26 L 196.13 219.74 L 196.07 232.97 C196.03,240.24 196.27,246.62 196.59,247.15 ZM 216.00 246.56 C216.00,247.62 216.73,248.03 218.23,247.82 C219.83,247.59 220.91,246.25 222.10,243.00 C223.39,239.48 224.31,238.43 226.28,238.19 C228.51,237.92 229.00,238.47 230.48,242.94 C231.70,246.61 232.67,248.00 234.02,248.00 C235.04,248.00 236.13,247.60 236.43,247.12 C236.73,246.63 235.27,240.44 233.19,233.37 C229.85,222.00 229.14,220.46 227.09,220.17 C225.81,219.98 224.40,220.21 223.94,220.67 C222.94,221.67 216.00,244.31 216.00,246.56 ZM 275.96 248.46 C276.79,249.45 278.19,249.72 280.34,249.32 C284.34,248.56 286.00,247.26 286.00,244.88 C286.00,243.28 285.22,243.00 280.70,243.00 C274.71,243.00 273.00,241.84 273.00,237.80 C273.00,235.27 273.33,235.00 276.50,235.00 C279.57,235.00 280.00,234.69 280.00,232.50 C280.00,230.31 279.57,230.00 276.50,230.00 C273.03,230.00 272.18,228.84 273.79,226.31 C274.20,225.66 277.01,224.98 280.02,224.81 C284.83,224.54 285.54,224.22 285.82,222.25 C286.12,220.10 285.83,220.00 279.14,220.00 C272.55,220.00 272.01,220.17 270.07,222.90 C267.07,227.12 267.07,240.55 270.07,244.37 C271.21,245.81 272.73,247.00 273.45,247.00 C274.17,247.00 275.30,247.66 275.96,248.46 ZM 177.00 247.29 C179.53,248.22 180.98,248.06 183.93,246.54 C187.14,244.88 188.00,243.21 188.00,238.64 C188.00,234.16 185.60,231.24 180.90,229.97 C177.96,229.18 176.96,228.43 177.20,227.19 C177.62,224.97 182.00,224.27 182.00,226.43 C182.00,227.44 182.90,228.00 184.50,228.00 C187.44,228.00 187.83,225.63 185.44,222.22 C184.34,220.64 182.87,220.00 180.38,220.00 C175.38,220.00 173.33,221.44 172.57,225.46 C171.68,230.22 173.27,232.76 178.57,235.03 C181.60,236.33 183.00,237.53 183.00,238.84 C183.00,242.76 177.98,244.00 176.61,240.42 C176.31,239.64 175.15,239.00 174.03,239.00 C169.87,239.00 172.21,245.53 177.00,247.29 ZM 198.67 211.33 C199.03,211.70 202.63,212.00 206.67,212.00 C213.82,212.00 214.00,211.94 214.00,209.50 C214.00,207.39 213.53,207.00 211.00,207.00 L 208.00 207.00 L 208.00 189.95 L 211.00 189.35 C213.32,188.89 214.00,188.21 214.00,186.38 C214.00,184.11 213.69,184.00 207.25,184.02 C200.12,184.03 197.79,184.84 197.41,187.42 C197.24,188.55 198.00,189.00 200.09,189.00 L 203.00 189.00 L 203.00 197.52 C203.00,205.64 202.88,206.10 200.50,207.18 C198.07,208.29 197.32,209.98 198.67,211.33 ZM 250.00 247.30 C253.92,248.72 256.62,247.64 258.57,243.86 C259.88,241.34 259.88,240.89 258.62,240.41 C257.82,240.10 255.97,240.63 254.51,241.58 C251.93,243.28 251.80,243.26 249.27,240.72 C244.25,235.70 246.56,225.00 252.65,225.00 C253.94,225.00 255.00,225.45 255.00,226.00 C255.00,226.55 256.35,227.00 258.00,227.00 C261.64,227.00 261.80,225.71 258.55,222.45 C256.76,220.67 255.00,220.00 252.10,220.00 C244.47,220.00 239.08,229.67 241.92,238.26 C243.04,241.66 247.16,246.26 250.00,247.30 ZM 257.50 205.00 C256.50,206.10 254.63,207.00 253.35,207.00 C250.94,207.00 250.75,206.07 250.75,194.50 C250.75,189.61 251.05,189.00 253.48,189.00 C258.80,189.00 261.67,200.40 257.50,205.00 ZM 123.95 247.36 C124.50,248.81 125.30,249.99 125.73,249.98 C127.72,249.94 141.37,246.03 142.10,245.30 C143.19,244.21 142.08,240.00 140.70,240.00 C139.64,240.00 123.75,244.10 123.22,244.51 C123.07,244.62 123.40,245.91 123.95,247.36 ZM 78.00 244.00 L 78.00 250.00 L 95.00 250.00 L 95.00 244.00 L 78.00 244.00 ZM 122.00 239.70 C122.00,242.54 123.17,242.54 132.92,239.67 C140.33,237.48 141.63,236.54 140.22,234.33 C139.67,233.45 137.25,233.69 130.74,235.28 C122.91,237.19 122.00,237.65 122.00,239.70 ZM 97.67 249.33 C98.03,249.70 101.18,250.00 104.67,250.00 L 111.00 250.00 L 111.00 244.00 L 104.00 244.00 C97.33,244.00 97.00,244.11 97.00,246.33 C97.00,247.62 97.30,248.97 97.67,249.33 ZM 78.00 196.50 C78.00,198.97 78.10,199.00 86.50,199.00 C94.90,199.00 95.00,198.97 95.00,196.50 C95.00,194.03 94.90,194.00 86.50,194.00 C78.10,194.00 78.00,194.03 78.00,196.50 ZM 97.38 188.55 C97.79,189.61 99.68,190.00 104.47,190.00 C110.77,190.00 111.00,189.91 111.00,187.50 C111.00,185.09 110.76,185.00 104.56,185.00 C98.09,185.00 96.35,185.86 97.38,188.55 ZM 176.51 277.18 C177.10,277.76 190.21,275.56 195.50,273.99 C199.02,272.94 190.98,273.46 172.50,275.49 C161.38,276.71 161.07,276.79 168.22,276.71 C172.47,276.65 176.20,276.87 176.51,277.18 ZM 78.67 241.33 C79.03,241.70 82.86,242.00 87.17,242.00 C93.46,242.00 95.00,241.71 95.00,240.50 C95.00,239.28 93.39,239.00 86.50,239.00 C78.70,239.00 76.88,239.54 78.67,241.33 ZM 81.05 173.50 C80.97,172.02 78.74,172.29 78.22,173.85 C78.21,173.88 78.20,173.91 78.19,173.94 C78.12,172.97 79.45,172.01 80.94,172.48 C81.92,172.79 83.28,172.36 83.98,171.52 C85.08,170.20 84.71,170.00 81.17,170.00 C77.31,170.00 77.04,170.20 76.05,173.75 C75.48,175.81 75.01,178.14 75.01,178.92 C75.00,179.91 75.78,179.62 77.51,177.99 C79.19,176.41 79.65,175.40 78.88,174.93 C78.87,174.92 78.86,174.91 78.85,174.90 C79.01,174.91 79.21,174.89 79.44,174.85 C80.36,174.66 81.08,174.05 81.05,173.50 ZM 207.50 228.50 C207.50,231.15 207.12,231.54 204.25,231.81 C201.12,232.11 201.00,231.99 201.00,228.50 C201.00,225.01 201.12,224.89 204.25,225.19 C207.12,225.46 207.50,225.85 207.50,228.50 ZM 114.00 208.85 C114.00,209.71 114.61,209.98 115.65,209.58 C116.56,209.23 120.08,208.25 123.46,207.40 C130.07,205.74 132.80,204.47 131.84,203.51 C130.73,202.40 114.00,207.40 114.00,208.85 ZM 97.67 194.33 C98.03,194.70 101.18,195.00 104.67,195.00 C109.63,195.00 111.00,194.68 111.00,193.50 C111.00,192.31 109.56,192.00 104.00,192.00 C97.55,192.00 95.93,192.60 97.67,194.33 ZM 97.67 241.33 C98.03,241.70 101.18,242.00 104.67,242.00 C109.63,242.00 111.00,241.68 111.00,240.50 C111.00,239.31 109.56,239.00 104.00,239.00 C97.55,239.00 95.93,239.60 97.67,241.33 ZM 91.81 207.75 C91.56,209.07 90.31,209.58 86.74,209.80 C82.53,210.08 82.00,209.88 82.00,208.05 C82.00,206.25 82.62,206.00 87.07,206.00 C91.36,206.00 92.10,206.27 91.81,207.75 ZM 120.00 258.04 C120.00,258.39 122.14,258.33 124.75,257.90 C127.36,257.47 130.06,257.09 130.75,257.06 C131.44,257.03 132.00,256.55 132.00,256.00 C132.00,254.58 122.65,254.75 121.20,256.20 C120.54,256.86 120.00,257.69 120.00,258.04 ZM 284.67 231.33 C285.80,232.46 286.00,232.11 286.00,229.00 C286.00,227.35 285.55,226.00 285.00,226.00 C283.89,226.00 283.62,230.29 284.67,231.33 ZM 319.00 246.19 C319.00,246.64 319.67,247.00 320.50,247.00 C321.48,247.00 321.99,246.04 321.97,244.25 C321.94,241.62 321.87,241.58 320.47,243.44 C319.66,244.51 319.00,245.75 319.00,246.19 Z" fill="rgba(0,0,0,1)"/>
<path d="M 156.29 160.43 C157.25,159.40 173.19,156.08 174.25,156.69 C174.94,157.08 175.19,157.45 174.99,157.77 C174.92,157.57 174.72,157.34 174.43,157.06 C173.87,156.51 170.53,156.90 166.00,158.04 L 158.50 159.94 L 166.50 159.37 C168.72,159.21 170.42,159.08 171.69,158.94 C170.63,159.12 169.32,159.29 167.75,159.44 C163.76,159.82 159.38,160.39 158.00,160.71 C156.62,161.02 155.86,160.90 156.29,160.43 Z" fill="rgba(69,69,69,1)"/>
<path d="M 284.67 231.33 C283.62,230.29 283.89,226.00 285.00,226.00 C285.55,226.00 286.00,227.35 286.00,229.00 C286.00,232.11 285.80,232.46 284.67,231.33 Z" fill="rgba(153,147,239,1)"/>
<path d="M 176.51 277.18 C176.20,276.87 172.47,276.65 168.22,276.71 C161.07,276.79 161.38,276.71 172.50,275.49 C190.98,273.46 199.02,272.94 195.50,273.99 C190.21,275.56 177.10,277.76 176.51,277.18 ZM 120.00 258.04 C120.00,257.69 120.54,256.86 121.20,256.20 C122.65,254.75 132.00,254.58 132.00,256.00 C132.00,256.55 131.44,257.03 130.75,257.06 C130.06,257.09 127.36,257.47 124.75,257.90 C122.14,258.33 120.00,258.39 120.00,258.04 ZM 78.00 247.00 L 78.00 244.00 L 86.50 244.00 L 95.00 244.00 L 95.00 247.00 L 95.00 250.00 L 86.50 250.00 L 78.00 250.00 L 78.00 247.00 ZM 97.67 249.33 C97.30,248.97 97.00,247.62 97.00,246.33 C97.00,244.11 97.33,244.00 104.00,244.00 L 111.00 244.00 L 111.00 247.00 L 111.00 250.00 L 104.67 250.00 C101.18,250.00 98.03,249.70 97.67,249.33 ZM 123.95 247.36 C123.40,245.91 123.07,244.62 123.22,244.51 C123.75,244.10 139.64,240.00 140.70,240.00 C142.08,240.00 143.19,244.21 142.10,245.30 C141.37,246.03 127.72,249.94 125.73,249.98 C125.30,249.99 124.50,248.81 123.95,247.36 ZM 275.96 248.46 C275.30,247.66 274.17,247.00 273.45,247.00 C272.73,247.00 271.21,245.81 270.07,244.37 C267.07,240.55 267.07,227.12 270.07,222.90 C272.01,220.17 272.55,220.00 279.14,220.00 C285.83,220.00 286.12,220.10 285.82,222.25 C285.54,224.22 284.83,224.54 280.02,224.81 C277.01,224.98 274.20,225.66 273.79,226.31 C272.18,228.84 273.03,230.00 276.50,230.00 C279.57,230.00 280.00,230.31 280.00,232.50 C280.00,234.69 279.57,235.00 276.50,235.00 C273.33,235.00 273.00,235.27 273.00,237.80 C273.00,241.84 274.71,243.00 280.70,243.00 C285.22,243.00 286.00,243.28 286.00,244.88 C286.00,247.26 284.34,248.56 280.34,249.32 C278.19,249.72 276.79,249.45 275.96,248.46 ZM 177.00 247.29 C172.21,245.53 169.87,239.00 174.03,239.00 C175.15,239.00 176.31,239.64 176.61,240.42 C177.98,244.00 183.00,242.76 183.00,238.84 C183.00,237.53 181.60,236.33 178.57,235.03 C173.27,232.76 171.68,230.22 172.57,225.46 C173.33,221.44 175.38,220.00 180.38,220.00 C182.87,220.00 184.34,220.64 185.44,222.22 C187.83,225.63 187.44,228.00 184.50,228.00 C182.90,228.00 182.00,227.44 182.00,226.43 C182.00,224.27 177.62,224.97 177.20,227.19 C176.96,228.43 177.96,229.18 180.90,229.97 C185.60,231.24 188.00,234.16 188.00,238.64 C188.00,243.21 187.14,244.88 183.93,246.54 C180.98,248.06 179.53,248.22 177.00,247.29 ZM 196.59 247.15 C196.27,246.62 196.03,240.24 196.07,232.97 L 196.13 219.74 L 202.62 220.26 C210.57,220.90 213.00,222.73 213.00,228.12 C213.00,232.80 210.31,235.60 204.93,236.51 C201.12,237.16 201.10,237.18 200.80,242.32 C200.58,246.18 200.08,247.56 198.84,247.80 C197.93,247.97 196.92,247.68 196.59,247.15 ZM 207.50 228.50 C207.50,225.85 207.12,225.46 204.25,225.19 C201.12,224.89 201.00,225.01 201.00,228.50 C201.00,231.99 201.12,232.11 204.25,231.81 C207.12,231.54 207.50,231.15 207.50,228.50 ZM 216.00 246.56 C216.00,244.31 222.94,221.67 223.94,220.67 C224.40,220.21 225.81,219.98 227.09,220.17 C229.14,220.46 229.85,222.00 233.19,233.37 C235.27,240.44 236.73,246.63 236.43,247.12 C236.13,247.60 235.04,248.00 234.02,248.00 C232.67,248.00 231.70,246.61 230.48,242.94 C229.00,238.47 228.51,237.92 226.28,238.19 C224.31,238.43 223.39,239.48 222.10,243.00 C220.91,246.25 219.83,247.59 218.23,247.82 C216.73,248.03 216.00,247.62 216.00,246.56 ZM 250.00 247.30 C247.16,246.26 243.04,241.66 241.92,238.26 C239.08,229.67 244.47,220.00 252.10,220.00 C255.00,220.00 256.76,220.67 258.55,222.45 C261.80,225.71 261.64,227.00 258.00,227.00 C256.35,227.00 255.00,226.55 255.00,226.00 C255.00,225.45 253.94,225.00 252.65,225.00 C246.56,225.00 244.25,235.70 249.27,240.72 C251.80,243.26 251.93,243.28 254.51,241.58 C255.97,240.63 257.82,240.10 258.62,240.41 C259.88,240.89 259.88,241.34 258.57,243.86 C256.62,247.64 253.92,248.72 250.00,247.30 ZM 319.00 246.19 C319.00,245.75 319.66,244.51 320.47,243.44 C321.87,241.58 321.94,241.62 321.97,244.25 C321.99,246.04 321.48,247.00 320.50,247.00 C319.67,247.00 319.00,246.64 319.00,246.19 ZM 78.67 241.33 C76.88,239.54 78.70,239.00 86.50,239.00 C93.39,239.00 95.00,239.28 95.00,240.50 C95.00,241.71 93.46,242.00 87.17,242.00 C82.86,242.00 79.03,241.70 78.67,241.33 ZM 97.67 241.33 C95.93,239.60 97.55,239.00 104.00,239.00 C109.56,239.00 111.00,239.31 111.00,240.50 C111.00,241.68 109.63,242.00 104.67,242.00 C101.18,242.00 98.03,241.70 97.67,241.33 ZM 122.00 239.70 C122.00,237.65 122.91,237.19 130.74,235.28 C137.25,233.69 139.67,233.45 140.22,234.33 C141.63,236.54 140.33,237.48 132.92,239.67 C123.17,242.54 122.00,242.54 122.00,239.70 ZM 77.39 235.42 C77.73,234.55 78.00,226.45 78.00,217.42 L 78.00 201.00 L 86.50 201.00 L 95.00 201.00 L 95.00 219.00 L 95.00 237.00 L 85.89 237.00 C78.00,237.00 76.87,236.79 77.39,235.42 ZM 91.81 207.75 C92.10,206.27 91.36,206.00 87.07,206.00 C82.62,206.00 82.00,206.25 82.00,208.05 C82.00,209.88 82.53,210.08 86.74,209.80 C90.31,209.58 91.56,209.07 91.81,207.75 ZM 97.00 216.87 L 97.00 196.75 L 105.75 197.22 C112.37,197.58 116.08,197.24 121.00,195.85 C124.57,194.83 128.02,194.00 128.67,194.00 C129.78,194.00 131.63,199.70 130.80,200.54 C130.58,200.76 126.66,201.93 122.08,203.16 C113.95,205.33 113.72,205.34 112.38,203.50 C111.19,201.88 111.00,204.03 111.00,219.31 L 111.00 237.00 L 104.00 237.00 L 97.00 237.00 L 97.00 216.87 ZM 120.27 233.91 C119.98,232.80 118.87,231.99 117.63,231.97 C115.62,231.94 115.60,231.86 117.30,230.57 C119.02,229.26 119.01,228.88 116.99,220.96 C115.83,216.43 115.25,212.39 115.69,211.99 C116.14,211.59 120.09,210.34 124.49,209.21 C130.14,207.76 132.68,207.48 133.16,208.26 C134.01,209.63 139.19,230.14 138.79,230.54 C138.63,230.70 134.51,231.95 129.63,233.32 C121.05,235.74 120.75,235.76 120.27,233.91 ZM 171.56 211.09 C170.58,209.51 171.17,187.55 172.23,186.25 C173.99,184.09 174.95,184.84 177.63,190.50 C179.06,193.52 180.52,196.00 180.87,196.00 C181.22,196.00 182.44,193.41 183.58,190.25 C185.13,185.91 186.17,184.42 187.82,184.18 C189.97,183.86 190.00,184.04 190.00,197.93 L 190.00 212.00 L 187.36 212.00 C184.78,212.00 184.74,211.88 185.31,207.03 C185.98,201.41 184.95,199.86 182.98,203.53 C181.38,206.52 180.41,206.63 178.77,204.00 C177.03,201.22 176.00,201.50 175.99,204.75 C175.97,208.98 174.91,212.00 173.44,212.00 C172.71,212.00 171.87,211.59 171.56,211.09 ZM 198.67 211.33 C197.32,209.98 198.07,208.29 200.50,207.18 C202.88,206.10 203.00,205.64 203.00,197.52 L 203.00 189.00 L 200.09 189.00 C198.00,189.00 197.24,188.55 197.41,187.42 C197.79,184.84 200.12,184.03 207.25,184.02 C213.69,184.00 214.00,184.11 214.00,186.38 C214.00,188.21 213.32,188.89 211.00,189.35 L 208.00 189.95 L 208.00 198.48 L 208.00 207.00 L 211.00 207.00 C213.53,207.00 214.00,207.39 214.00,209.50 C214.00,211.94 213.82,212.00 206.67,212.00 C202.63,212.00 199.03,211.70 198.67,211.33 ZM 221.67 210.31 C221.40,209.31 221.15,203.24 221.13,196.81 C221.08,185.83 221.21,185.07 223.15,184.45 C225.86,183.59 227.24,185.14 230.37,192.50 C233.06,198.84 233.22,198.71 233.39,190.00 C233.49,184.83 233.65,184.50 236.00,184.50 L 238.50 184.50 L 238.31 196.88 C238.09,210.84 237.85,212.00 235.11,212.00 C233.66,212.00 232.30,210.14 229.83,204.75 L 226.50 197.51 L 226.00 204.49 C225.61,209.97 225.14,211.55 223.84,211.80 C222.90,211.98 221.95,211.33 221.67,210.31 ZM 246.13 209.75 C245.34,208.27 245.03,203.57 245.21,196.00 L 245.50 184.50 L 250.50 184.28 C257.53,183.97 260.56,185.46 262.96,190.42 C265.41,195.48 265.54,199.61 263.42,204.92 C261.37,210.04 258.26,212.00 252.20,212.00 C248.18,212.00 247.13,211.61 246.13,209.75 ZM 257.50 205.00 C261.67,200.40 258.80,189.00 253.48,189.00 C251.05,189.00 250.75,189.61 250.75,194.50 C250.75,206.07 250.94,207.00 253.35,207.00 C254.63,207.00 256.50,206.10 257.50,205.00 ZM 114.00 208.85 C114.00,207.40 130.73,202.40 131.84,203.51 C132.80,204.47 130.07,205.74 123.46,207.40 C120.08,208.25 116.56,209.23 115.65,209.58 C114.61,209.98 114.00,209.71 114.00,208.85 ZM 78.00 196.50 C78.00,194.03 78.10,194.00 86.50,194.00 C94.90,194.00 95.00,194.03 95.00,196.50 C95.00,198.97 94.90,199.00 86.50,199.00 C78.10,199.00 78.00,198.97 78.00,196.50 ZM 97.67 194.33 C95.93,192.60 97.55,192.00 104.00,192.00 C109.56,192.00 111.00,192.31 111.00,193.50 C111.00,194.68 109.63,195.00 104.67,195.00 C101.18,195.00 98.03,194.70 97.67,194.33 ZM 97.38 188.55 C96.35,185.86 98.09,185.00 104.56,185.00 C110.76,185.00 111.00,185.09 111.00,187.50 C111.00,189.91 110.77,190.00 104.47,190.00 C99.68,190.00 97.79,189.61 97.38,188.55 ZM 75.01 178.92 C75.01,178.14 75.48,175.81 76.05,173.75 C77.04,170.20 77.31,170.00 81.17,170.00 C84.71,170.00 85.08,170.20 83.98,171.52 C83.28,172.36 81.92,172.79 80.94,172.48 C78.90,171.83 77.18,173.87 78.88,174.93 C79.65,175.40 79.19,176.41 77.51,177.99 C75.78,179.62 75.00,179.91 75.01,178.92 ZM 166.00 158.04 C170.53,156.90 173.87,156.51 174.43,157.06 C175.91,158.50 175.00,158.76 166.50,159.37 L 158.50 159.94 L 166.00 158.04 Z" fill="rgba(250,250,250,1)"/>
</g>
</svg>